<svg xmlns="http://www.w3.org/2000/svg" xmlns:xlink="http://www.w3.org/1999/xlink" width="300" zoomAndPan="magnify" viewBox="0 0 224.87999 74.999997" height="100" preserveAspectRatio="xMidYMid meet" version="1.0"><defs><g/><clipPath id="ceeca1a884"><path d="M 0 0.0195312 L 224.761719 0.0195312 L 224.761719 74.980469 L 0 74.980469 Z M 0 0.0195312 " clip-rule="nonzero"/></clipPath></defs><g clip-path="url(#ceeca1a884)"><path fill="#ffffff" d="M 0 0.0195312 L 224.878906 0.0195312 L 224.878906 82.476562 L 0 82.476562 Z M 0 0.0195312 " fill-opacity="1" fill-rule="nonzero"/><path fill="#ffffff" d="M 0 0.0195312 L 224.878906 0.0195312 L 224.878906 74.980469 L 0 74.980469 Z M 0 0.0195312 " fill-opacity="1" fill-rule="nonzero"/><path fill="#ffffff" d="M 0 0.0195312 L 224.878906 0.0195312 L 224.878906 74.980469 L 0 74.980469 Z M 0 0.0195312 " fill-opacity="1" fill-rule="nonzero"/></g><g fill="#000000" fill-opacity="1"><g transform="translate(112.43999, 38.399516)"><g/></g></g><g fill="#fefefe" fill-opacity="1"><g transform="translate(3.572312, 69.240226)"><g><path d="M 26.257812 -7.503906 L 3.75 -7.503906 L 3.75 0 L 26.257812 0 C 31.285156 0 33.757812 -2.550781 33.757812 -7.503906 L 33.757812 -60.015625 L 26.257812 -60.015625 Z M 26.257812 -7.503906 "/></g></g></g><g fill="#fefefe" fill-opacity="1"><g transform="translate(41.081579, 69.240226)"><g><path d="M 11.253906 0 L 37.511719 0 C 42.535156 0 45.011719 -2.550781 45.011719 -7.503906 L 45.011719 -52.515625 C 45.011719 -57.539062 42.535156 -60.015625 37.511719 -60.015625 L 11.253906 -60.015625 C 6.300781 -60.015625 3.75 -57.539062 3.75 -52.515625 L 37.511719 -52.515625 L 37.511719 -7.503906 L 11.253906 -7.503906 L 11.253906 -45.011719 L 3.75 -45.011719 L 3.75 -7.503906 C 3.75 -2.550781 6.300781 0 11.253906 0 Z M 11.253906 0 "/></g></g></g><g fill="#fefefe" fill-opacity="1"><g transform="translate(89.843629, 69.240226)"><g><path d="M 11.253906 0 L 37.511719 0 C 42.535156 0 45.011719 -2.550781 45.011719 -7.503906 L 45.011719 -60.015625 L 37.511719 -60.015625 L 37.511719 -7.503906 L 11.253906 -7.503906 L 11.253906 -60.015625 L 3.75 -60.015625 L 3.75 -7.503906 C 3.75 -2.550781 6.300781 0 11.253906 0 Z M 11.253906 0 "/></g></g></g><g fill="#fefefe" fill-opacity="1"><g transform="translate(138.605679, 69.240226)"><g><path d="M 3.75 -52.515625 L 3.75 0 L 11.253906 0 L 11.253906 -52.515625 L 37.511719 -52.515625 L 37.511719 0 L 45.011719 0 L 45.011719 -52.515625 C 45.011719 -57.539062 42.535156 -60.015625 37.511719 -60.015625 L 11.253906 -60.015625 C 6.300781 -60.015625 3.75 -57.539062 3.75 -52.515625 Z M 3.75 -52.515625 "/></g></g></g><g fill="#fefefe" fill-opacity="1"><g transform="translate(187.367729, 69.240226)"><g><path d="M 3.75 -26.257812 L 3.75 0 L 11.253906 0 L 11.253906 -26.257812 L 18.753906 -26.257812 C 23.78125 -26.257812 26.257812 -28.808594 26.257812 -33.757812 L 26.257812 -60.015625 L 18.753906 -60.015625 L 18.753906 -33.757812 L 11.253906 -33.757812 C 6.300781 -33.757812 3.75 -31.285156 3.75 -26.257812 Z M 3.75 -26.257812 "/></g></g></g></svg>