<svg xmlns="http://www.w3.org/2000/svg" xmlns:xlink="http://www.w3.org/1999/xlink" width="40" zoomAndPan="magnify" viewBox="0 0 30 37.5" height="50" preserveAspectRatio="xMidYMid meet" version="1.0"><defs><g/><clipPath id="3b2c681298"><path d="M 0.199219 0 L 29.800781 0 L 29.800781 37.007812 L 0.199219 37.007812 Z M 0.199219 0 " clip-rule="nonzero"/></clipPath></defs><g clip-path="url(#3b2c681298)"><path fill="#ffffff" d="M 0.199219 0 L 29.800781 0 L 29.800781 44.40625 L 0.199219 44.40625 Z M 0.199219 0 " fill-opacity="1" fill-rule="nonzero"/><path fill="#ffffff" d="M 0.199219 0 L 29.800781 0 L 29.800781 37.007812 L 0.199219 37.007812 Z M 0.199219 0 " fill-opacity="1" fill-rule="nonzero"/><path fill="#ffffff" d="M 0.199219 0 L 29.800781 0 L 29.800781 37.007812 L 0.199219 37.007812 Z M 0.199219 0 " fill-opacity="1" fill-rule="nonzero"/></g><g fill="#000000" fill-opacity="1"><g transform="translate(3.157895, 33.217105)"><g><path d="M 5.613281 0 L 18.707031 0 C 21.214844 0 22.449219 -1.273438 22.449219 -3.742188 L 22.449219 -26.191406 C 22.449219 -28.695312 21.214844 -29.929688 18.707031 -29.929688 L 5.613281 -29.929688 C 3.144531 -29.929688 1.871094 -28.695312 1.871094 -26.191406 L 18.707031 -26.191406 L 18.707031 -3.742188 L 5.613281 -3.742188 L 5.613281 -22.449219 L 1.871094 -22.449219 L 1.871094 -3.742188 C 1.871094 -1.273438 3.144531 0 5.613281 0 Z M 5.613281 0 "/></g></g></g></svg>