<svg xmlns="http://www.w3.org/2000/svg" xmlns:xlink="http://www.w3.org/1999/xlink" width="56" zoomAndPan="magnify" viewBox="0 0 42 42.75" height="56" preserveAspectRatio="xMidYMid meet" version="1.0"><defs><clipPath id="id1"><path d="M 0.121094 0 L 41.875 0 L 41.875 42.5 L 0.121094 42.5 Z M 0.121094 0 " clip-rule="nonzero"/></clipPath><clipPath id="id2"><path d="M 0.121094 0 L 41.875 0 L 41.875 42 L 0.121094 42 Z M 0.121094 0 " clip-rule="nonzero"/></clipPath><clipPath id="id3"><path d="M 0.121094 0 L 41.875 0 L 41.875 41.753906 L 0.121094 41.753906 Z M 0.121094 0 " clip-rule="nonzero"/></clipPath><clipPath id="id4"><path d="M 0.859375 0.738281 L 41.152344 0.738281 L 41.152344 41.027344 L 0.859375 41.027344 Z M 0.859375 0.738281 " clip-rule="nonzero"/></clipPath></defs><g clip-path="url(#id1)"><path fill="#ffffff" d="M 0.121094 0 L 41.878906 0 L 41.878906 49.082031 L 0.121094 49.082031 Z M 0.121094 0 " fill-opacity="1" fill-rule="nonzero"/></g><g clip-path="url(#id2)"><path fill="#ffffff" d="M 0.121094 0 L 41.878906 0 L 41.878906 41.753906 L 0.121094 41.753906 Z M 0.121094 0 " fill-opacity="1" fill-rule="nonzero"/></g><g clip-path="url(#id3)"><path fill="#ffffff" d="M 0.121094 0 L 41.878906 0 L 41.878906 41.753906 L 0.121094 41.753906 Z M 0.121094 0 " fill-opacity="1" fill-rule="nonzero"/><path fill="#ffffff" d="M 0.121094 0 L 41.878906 0 L 41.878906 41.753906 L 0.121094 41.753906 Z M 0.121094 0 " fill-opacity="1" fill-rule="nonzero"/></g><g clip-path="url(#id4)"><path fill="#171515" d="M 6.902344 0.738281 L 35.109375 0.738281 C 35.503906 0.738281 35.898438 0.777344 36.285156 0.855469 C 36.675781 0.933594 37.054688 1.046875 37.421875 1.199219 C 37.785156 1.351562 38.136719 1.535156 38.464844 1.757812 C 38.796875 1.976562 39.101562 2.226562 39.382812 2.507812 C 39.660156 2.789062 39.910156 3.09375 40.132812 3.425781 C 40.351562 3.753906 40.539062 4.101562 40.691406 4.46875 C 40.84375 4.835938 40.957031 5.214844 41.035156 5.601562 C 41.113281 5.992188 41.152344 6.386719 41.152344 6.78125 L 41.152344 34.984375 C 41.152344 35.382812 41.113281 35.773438 41.035156 36.164062 C 40.957031 36.554688 40.84375 36.929688 40.691406 37.296875 C 40.539062 37.664062 40.351562 38.011719 40.132812 38.34375 C 39.910156 38.671875 39.660156 38.976562 39.382812 39.257812 C 39.101562 39.539062 38.796875 39.789062 38.464844 40.011719 C 38.136719 40.230469 37.785156 40.417969 37.421875 40.570312 C 37.054688 40.722656 36.675781 40.835938 36.285156 40.914062 C 35.898438 40.988281 35.503906 41.027344 35.109375 41.027344 L 6.902344 41.027344 C 6.507812 41.027344 6.113281 40.988281 5.726562 40.914062 C 5.335938 40.835938 4.957031 40.722656 4.589844 40.570312 C 4.222656 40.417969 3.875 40.230469 3.546875 40.011719 C 3.214844 39.789062 2.910156 39.539062 2.628906 39.257812 C 2.351562 38.976562 2.097656 38.671875 1.878906 38.34375 C 1.660156 38.011719 1.472656 37.664062 1.320312 37.296875 C 1.167969 36.929688 1.054688 36.554688 0.976562 36.164062 C 0.898438 35.773438 0.859375 35.382812 0.859375 34.984375 L 0.859375 6.78125 C 0.859375 6.386719 0.898438 5.992188 0.976562 5.601562 C 1.054688 5.214844 1.167969 4.835938 1.320312 4.46875 C 1.472656 4.101562 1.660156 3.753906 1.878906 3.425781 C 2.097656 3.09375 2.351562 2.789062 2.628906 2.507812 C 2.910156 2.226562 3.214844 1.976562 3.546875 1.757812 C 3.875 1.535156 4.222656 1.351562 4.589844 1.199219 C 4.957031 1.046875 5.335938 0.933594 5.726562 0.855469 C 6.113281 0.777344 6.507812 0.738281 6.902344 0.738281 Z M 6.902344 0.738281 " fill-opacity="1" fill-rule="nonzero"/></g><path fill="#ffffff" d="M 10.226562 20.804688 C 11.5625 23.164062 14.082031 24.582031 18.25 24.976562 C 17.621094 25.449219 16.914062 26.3125 16.835938 27.335938 C 16.046875 27.808594 14.554688 27.964844 13.371094 27.574219 C 11.71875 27.023438 11.089844 23.796875 8.570312 24.265625 C 8.019531 24.347656 8.101562 24.738281 8.570312 25.054688 C 9.359375 25.527344 10.226562 26.3125 10.617188 27.414062 C 11.5625 29.855469 13.53125 30.484375 16.675781 30.011719 L 16.675781 33.554688 C 16.675781 34.65625 15.105469 34.96875 15.105469 35.519531 C 15.105469 35.757812 15.65625 35.757812 16.046875 35.757812 C 16.835938 35.757812 18.566406 35.046875 18.566406 33.945312 C 18.566406 33.003906 18.566406 29.855469 18.644531 29.304688 C 18.644531 28.125 19.273438 27.730469 19.273438 27.730469 C 19.273438 27.730469 19.351562 34.183594 19.117188 34.96875 C 18.800781 35.992188 18.332031 35.835938 18.332031 36.308594 C 18.332031 37.015625 20.375 36.464844 21.085938 34.96875 C 21.636719 33.789062 21.398438 27.492188 21.320312 27.574219 L 21.871094 27.574219 C 21.871094 27.574219 21.871094 30.484375 21.949219 31.742188 C 21.949219 33.082031 21.871094 34.8125 22.660156 35.679688 C 23.210938 36.230469 24.941406 37.171875 24.941406 36.308594 C 24.941406 35.835938 23.996094 35.363281 23.996094 34.023438 L 23.996094 27.808594 C 24.78125 27.808594 24.625 29.855469 24.625 29.855469 L 24.703125 33.632812 C 24.703125 33.632812 24.546875 35.046875 26.199219 35.597656 C 26.828125 35.835938 28.089844 35.835938 28.167969 35.519531 C 28.246094 35.207031 26.59375 34.65625 26.59375 33.554688 L 26.59375 29.695312 C 26.59375 26.863281 26.199219 25.839844 24.863281 24.976562 C 29.03125 24.582031 31.628906 23.558594 32.886719 20.804688 C 33.675781 19.230469 33.832031 17.34375 33.832031 15.925781 C 33.832031 11.992188 31.945312 10.652344 31.550781 9.945312 C 32.101562 6.953125 31.472656 5.617188 31.15625 5.222656 C 30.054688 4.832031 27.378906 6.167969 25.964844 7.113281 C 23.601562 6.402344 18.566406 6.484375 16.675781 7.269531 C 13.214844 4.832031 11.40625 5.222656 11.40625 5.222656 C 11.40625 5.222656 10.226562 7.347656 11.089844 10.417969 C 9.910156 11.832031 9.125 12.855469 9.042969 15.53125 C 9.042969 17.65625 9.28125 18.996094 10.226562 20.804688 Z M 10.226562 20.804688 " fill-opacity="1" fill-rule="nonzero"/></svg>