<svg xmlns="http://www.w3.org/2000/svg" xmlns:xlink="http://www.w3.org/1999/xlink" width="56" zoomAndPan="magnify" viewBox="0 0 42 42.75" height="56" preserveAspectRatio="xMidYMid meet" version="1.0"><defs><clipPath id="id1"><path d="M 0.730469 0.605469 L 41.019531 0.605469 L 41.019531 40.898438 L 0.730469 40.898438 Z M 0.730469 0.605469 " clip-rule="nonzero"/></clipPath></defs><g clip-path="url(#id1)"><path fill="#1d9bf0" d="M 35.984375 40.898438 L 5.765625 40.898438 C 2.984375 40.898438 0.730469 38.640625 0.730469 35.859375 L 0.730469 5.644531 C 0.730469 2.863281 2.984375 0.605469 5.765625 0.605469 L 35.984375 0.605469 C 38.761719 0.605469 41.019531 2.863281 41.019531 5.644531 L 41.019531 35.859375 C 41.019531 38.640625 38.761719 40.898438 35.984375 40.898438 Z M 35.984375 40.898438 " fill-opacity="1" fill-rule="nonzero"/></g><path fill="#ffffff" d="M 16.199219 30.984375 C 25.699219 30.984375 30.898438 23.109375 30.898438 16.289062 C 30.898438 16.070312 30.898438 15.847656 30.886719 15.625 C 31.894531 14.898438 32.769531 13.984375 33.464844 12.945312 C 32.539062 13.359375 31.542969 13.628906 30.492188 13.761719 C 31.5625 13.128906 32.378906 12.109375 32.769531 10.902344 C 31.773438 11.496094 30.664062 11.917969 29.488281 12.148438 C 28.539062 11.144531 27.199219 10.519531 25.71875 10.519531 C 22.867188 10.519531 20.550781 12.835938 20.550781 15.6875 C 20.550781 16.089844 20.601562 16.480469 20.683594 16.863281 C 16.390625 16.652344 12.585938 14.585938 10.035156 11.464844 C 9.59375 12.230469 9.339844 13.117188 9.339844 14.0625 C 9.339844 15.855469 10.257812 17.4375 11.636719 18.363281 C 10.792969 18.335938 9.996094 18.101562 9.300781 17.71875 C 9.300781 17.742188 9.300781 17.761719 9.300781 17.789062 C 9.300781 20.289062 11.082031 22.382812 13.441406 22.855469 C 13.007812 22.976562 12.554688 23.039062 12.082031 23.039062 C 11.75 23.039062 11.425781 23.007812 11.113281 22.949219 C 11.769531 25.003906 13.683594 26.492188 15.9375 26.535156 C 14.164062 27.925781 11.941406 28.75 9.523438 28.75 C 9.109375 28.75 8.695312 28.730469 8.292969 28.679688 C 10.570312 30.128906 13.289062 30.984375 16.199219 30.984375 " fill-opacity="1" fill-rule="nonzero"/></svg>