<svg xmlns="http://www.w3.org/2000/svg" xmlns:xlink="http://www.w3.org/1999/xlink" width="350" zoomAndPan="magnify" viewBox="0 0 262.5 149.999998" height="200" preserveAspectRatio="xMidYMid meet" version="1.0"><defs><g/></defs><g fill="#ffd500" fill-opacity="1"><g transform="translate(13.519069, 100.863741)"><g><path d="M 32.890625 1.46875 L 5.96875 1.46875 L 5.96875 -74.40625 L 30.84375 -74.40625 C 38.28125 -74.40625 44.15625 -72.804688 48.46875 -69.609375 C 53.164062 -66.023438 55.515625 -60.707031 55.515625 -53.65625 C 55.515625 -48.695312 54.046875 -44.648438 51.109375 -41.515625 C 53.984375 -39.296875 56.132812 -36.816406 57.5625 -34.078125 C 59.332031 -30.804688 60.21875 -27.28125 60.21875 -23.5 C 60.21875 -19.519531 59.460938 -15.992188 57.953125 -12.921875 C 56.523438 -9.921875 54.472656 -7.28125 51.796875 -5 C 46.566406 -0.6875 40.265625 1.46875 32.890625 1.46875 Z M 8.90625 -71.46875 L 8.90625 -1.46875 L 32.890625 -1.46875 C 39.617188 -1.46875 45.300781 -3.394531 49.9375 -7.25 C 54.832031 -11.425781 57.28125 -16.84375 57.28125 -23.5 C 57.28125 -30.738281 54.210938 -36.285156 48.078125 -40.140625 L 46.5 -41.125 L 47.875 -42.390625 C 51.007812 -45.265625 52.578125 -49.019531 52.578125 -53.65625 C 52.578125 -59.65625 50.617188 -64.191406 46.703125 -67.265625 C 42.910156 -70.066406 37.625 -71.46875 30.84375 -71.46875 Z M 33.390625 -12.234375 L 21.140625 -12.234375 L 21.140625 -33.96875 L 33.390625 -33.96875 C 36.847656 -33.96875 39.617188 -32.988281 41.703125 -31.03125 C 43.660156 -29.070312 44.640625 -26.398438 44.640625 -23.015625 C 44.640625 -19.679688 43.628906 -17.050781 41.609375 -15.125 C 39.585938 -13.195312 36.847656 -12.234375 33.390625 -12.234375 Z M 30.25 -44.25 L 21.140625 -44.25 L 21.140625 -60.703125 L 30.25 -60.703125 C 33.125 -60.703125 35.3125 -60.179688 36.8125 -59.140625 C 38.90625 -57.765625 39.953125 -55.546875 39.953125 -52.484375 C 39.953125 -50.066406 39.394531 -48.238281 38.28125 -47 C 36.644531 -45.164062 33.96875 -44.25 30.25 -44.25 Z M 24.078125 -31.03125 L 24.078125 -15.171875 L 33.390625 -15.171875 C 36.191406 -15.171875 38.273438 -15.851562 39.640625 -17.21875 C 41.015625 -18.59375 41.703125 -20.523438 41.703125 -23.015625 C 41.703125 -28.359375 38.929688 -31.03125 33.390625 -31.03125 Z M 24.078125 -57.765625 L 24.078125 -47.1875 L 30.25 -47.1875 C 33.0625 -47.1875 34.890625 -47.660156 35.734375 -48.609375 C 36.585938 -49.554688 37.015625 -50.847656 37.015625 -52.484375 C 37.015625 -54.503906 36.390625 -55.90625 35.140625 -56.6875 C 34.035156 -57.40625 32.40625 -57.765625 30.25 -57.765625 Z M 24.078125 -57.765625 "/></g></g></g><g fill="#ffd500" fill-opacity="1"><g transform="translate(75.196388, 100.863741)"><g><path d="M 28.984375 2.546875 C 21.535156 2.546875 15.140625 -0.128906 9.796875 -5.484375 C 7.304688 -7.960938 5.378906 -10.832031 4.015625 -14.09375 C 2.578125 -17.550781 1.859375 -21.078125 1.859375 -24.671875 C 1.859375 -32.242188 4.503906 -38.671875 9.796875 -43.953125 C 15.140625 -49.304688 21.535156 -51.984375 28.984375 -51.984375 C 32.765625 -51.984375 36.320312 -51.265625 39.65625 -49.828125 C 42.914062 -48.460938 45.816406 -46.503906 48.359375 -43.953125 C 53.773438 -38.671875 56.484375 -32.242188 56.484375 -24.671875 C 56.484375 -20.890625 55.769531 -17.363281 54.34375 -14.09375 C 52.96875 -10.832031 50.972656 -7.960938 48.359375 -5.484375 C 45.816406 -2.941406 42.914062 -0.984375 39.65625 0.390625 C 36.320312 1.828125 32.765625 2.546875 28.984375 2.546875 Z M 28.984375 -49.046875 C 22.253906 -49.046875 16.570312 -46.664062 11.9375 -41.90625 C 7.175781 -37.132812 4.796875 -31.390625 4.796875 -24.671875 C 4.796875 -18.015625 7.175781 -12.300781 11.9375 -7.53125 C 16.570312 -2.769531 22.253906 -0.390625 28.984375 -0.390625 C 32.179688 -0.390625 35.347656 -1.039062 38.484375 -2.34375 C 41.421875 -3.519531 44.03125 -5.25 46.3125 -7.53125 C 51.144531 -12.238281 53.5625 -17.953125 53.5625 -24.671875 C 53.5625 -31.460938 51.144531 -37.207031 46.3125 -41.90625 C 41.539062 -46.664062 35.765625 -49.046875 28.984375 -49.046875 Z M 28.984375 -11.265625 C 25.390625 -11.265625 22.351562 -12.503906 19.875 -14.984375 C 17.257812 -17.585938 15.953125 -20.816406 15.953125 -24.671875 C 15.953125 -28.523438 17.222656 -31.722656 19.765625 -34.265625 C 22.316406 -36.804688 25.390625 -38.078125 28.984375 -38.078125 C 32.765625 -38.078125 35.929688 -36.804688 38.484375 -34.265625 C 41.023438 -31.785156 42.296875 -28.585938 42.296875 -24.671875 C 42.296875 -20.628906 41.023438 -17.398438 38.484375 -14.984375 C 35.867188 -12.503906 32.703125 -11.265625 28.984375 -11.265625 Z M 28.984375 -35.140625 C 26.242188 -35.140625 23.894531 -34.164062 21.9375 -32.21875 C 19.90625 -30.1875 18.890625 -27.671875 18.890625 -24.671875 C 18.890625 -21.609375 19.90625 -19.0625 21.9375 -17.03125 C 23.820312 -15.144531 26.171875 -14.203125 28.984375 -14.203125 C 32.046875 -14.203125 34.523438 -15.144531 36.421875 -17.03125 C 38.378906 -18.988281 39.359375 -21.535156 39.359375 -24.671875 C 39.359375 -27.742188 38.378906 -30.253906 36.421875 -32.203125 C 34.460938 -34.160156 31.984375 -35.140625 28.984375 -35.140625 Z M 28.984375 -35.140625 "/></g></g></g><g fill="#ffd500" fill-opacity="1"><g transform="translate(132.076574, 100.863741)"><g><path d="M 31.328125 2.546875 C 28.785156 2.546875 26.304688 2.085938 23.890625 1.171875 C 22.390625 0.523438 21.34375 0.00390625 20.75 -0.390625 L 20.75 1.46875 L 3.921875 1.46875 L 3.921875 -74.40625 L 20.75 -74.40625 L 20.75 -49.046875 C 24.019531 -51.003906 27.546875 -51.984375 31.328125 -51.984375 C 34.847656 -51.984375 38.175781 -51.265625 41.3125 -49.828125 C 44.382812 -48.460938 47.09375 -46.503906 49.4375 -43.953125 C 54.53125 -38.671875 57.078125 -32.242188 57.078125 -24.671875 C 57.078125 -17.234375 54.597656 -10.867188 49.640625 -5.578125 C 44.546875 -0.160156 38.441406 2.546875 31.328125 2.546875 Z M 17.8125 -1.46875 L 17.8125 -7.9375 C 20.75 -2.90625 25.253906 -0.390625 31.328125 -0.390625 C 37.597656 -0.390625 42.96875 -2.769531 47.4375 -7.53125 C 51.90625 -12.300781 54.140625 -18.015625 54.140625 -24.671875 C 54.140625 -31.390625 51.890625 -37.164062 47.390625 -42 C 42.878906 -46.695312 37.523438 -49.046875 31.328125 -49.046875 C 29.109375 -49.046875 26.707031 -48.523438 24.125 -47.484375 C 21.550781 -46.441406 19.445312 -44.710938 17.8125 -42.296875 L 17.8125 -71.46875 L 6.859375 -71.46875 L 6.859375 -1.46875 Z M 29.953125 -11.265625 C 26.304688 -11.265625 23.273438 -12.535156 20.859375 -15.078125 C 18.441406 -17.617188 17.234375 -20.816406 17.234375 -24.671875 C 17.234375 -28.523438 18.441406 -31.722656 20.859375 -34.265625 C 23.203125 -36.804688 26.234375 -38.078125 29.953125 -38.078125 C 33.609375 -38.078125 36.675781 -36.835938 39.15625 -34.359375 C 41.707031 -31.679688 42.984375 -28.453125 42.984375 -24.671875 C 42.984375 -20.816406 41.707031 -17.617188 39.15625 -15.078125 C 36.613281 -12.535156 33.546875 -11.265625 29.953125 -11.265625 Z M 37.109375 -32.21875 C 35.210938 -34.164062 32.828125 -35.140625 29.953125 -35.140625 C 27.085938 -35.140625 24.773438 -34.195312 23.015625 -32.3125 C 21.117188 -30.289062 20.171875 -27.742188 20.171875 -24.671875 C 20.171875 -21.535156 21.117188 -19.023438 23.015625 -17.140625 C 24.835938 -15.179688 27.148438 -14.203125 29.953125 -14.203125 C 32.765625 -14.203125 35.148438 -15.179688 37.109375 -17.140625 C 39.066406 -19.222656 40.046875 -21.734375 40.046875 -24.671875 C 40.046875 -27.742188 39.066406 -30.257812 37.109375 -32.21875 Z M 37.109375 -32.21875 "/></g></g></g><g fill="#ffd500" fill-opacity="1"><g transform="translate(189.544156, 100.863741)"><g><path d="M 20.859375 -75.6875 L 13.125 -50.515625 L 2.25 -50.515625 L 2.25 -75.6875 Z M 5.1875 -72.75 L 5.1875 -53.453125 L 10.96875 -53.453125 L 16.9375 -72.75 Z M 5.1875 -72.75 "/></g></g></g><g fill="#ffd500" fill-opacity="1"><g transform="translate(208.634636, 100.863741)"><g><path d="M 18.703125 2.546875 C 14.984375 2.546875 11.585938 1.859375 8.515625 0.484375 C 5.578125 -0.753906 2.9375 -2.710938 0.59375 -5.390625 L -0.484375 -6.5625 L 13.609375 -16.84375 L 14.484375 -15.859375 C 15.597656 -14.753906 17.035156 -14.203125 18.796875 -14.203125 C 20.296875 -14.203125 21.046875 -14.820312 21.046875 -16.0625 C 21.046875 -17.300781 20.003906 -18.082031 17.921875 -18.40625 C 13.023438 -19.125 9.070312 -20.984375 6.0625 -23.984375 C 2.863281 -27.054688 1.265625 -30.910156 1.265625 -35.546875 C 1.265625 -40.046875 3.257812 -43.992188 7.25 -47.390625 C 10.832031 -50.453125 14.75 -51.984375 19 -51.984375 C 25.78125 -51.984375 31.128906 -49.175781 35.046875 -43.5625 L 35.828125 -42.390625 L 23.6875 -33.6875 L 22.8125 -34.46875 C 21.632812 -35.570312 20.457031 -36.125 19.28125 -36.125 C 18.300781 -36.125 17.8125 -35.765625 17.8125 -35.046875 C 17.8125 -34.660156 17.976562 -34.398438 18.3125 -34.265625 C 18.894531 -33.878906 20.066406 -33.585938 21.828125 -33.390625 C 27.441406 -32.671875 31.734375 -30.804688 34.703125 -27.796875 C 37.671875 -24.796875 39.15625 -20.816406 39.15625 -15.859375 C 39.15625 -10.378906 37.164062 -5.910156 33.1875 -2.453125 C 29.332031 0.878906 24.503906 2.546875 18.703125 2.546875 Z M 13.3125 -13.015625 L 3.921875 -6.171875 C 7.765625 -2.316406 12.691406 -0.390625 18.703125 -0.390625 C 23.796875 -0.390625 27.972656 -1.828125 31.234375 -4.703125 C 34.554688 -7.566406 36.21875 -11.285156 36.21875 -15.859375 C 36.21875 -20.296875 34.847656 -23.722656 32.109375 -26.140625 C 29.628906 -28.421875 26.109375 -29.859375 21.546875 -30.453125 C 17.097656 -30.972656 14.875 -32.503906 14.875 -35.046875 C 14.875 -36.222656 15.28125 -37.1875 16.09375 -37.9375 C 16.914062 -38.6875 17.976562 -39.0625 19.28125 -39.0625 C 20.851562 -39.0625 22.390625 -38.507812 23.890625 -37.40625 L 31.71875 -43.078125 C 28.582031 -47.054688 24.34375 -49.046875 19 -49.046875 C 15.40625 -49.046875 12.109375 -47.742188 9.109375 -45.140625 C 5.835938 -42.390625 4.203125 -39.191406 4.203125 -35.546875 C 4.203125 -31.816406 5.488281 -28.660156 8.0625 -26.078125 C 10.644531 -23.503906 14.09375 -21.925781 18.40625 -21.34375 C 20.164062 -21.082031 21.535156 -20.492188 22.515625 -19.578125 C 23.492188 -18.660156 23.984375 -17.484375 23.984375 -16.046875 C 23.984375 -14.617188 23.5625 -13.476562 22.71875 -12.625 C 21.664062 -11.71875 20.359375 -11.265625 18.796875 -11.265625 C 16.710938 -11.265625 14.882812 -11.847656 13.3125 -13.015625 Z M 13.3125 -13.015625 "/></g></g></g><g fill="#ffd500" fill-opacity="1"><g transform="translate(98.665328, 130.777225)"><g><path d="M 5.546875 0.1875 C 4.710938 0.1875 3.96875 0.0546875 3.3125 -0.203125 C 2.664062 -0.460938 2.125 -0.816406 1.6875 -1.265625 C 1.25 -1.710938 0.914062 -2.222656 0.6875 -2.796875 C 0.457031 -3.378906 0.34375 -3.988281 0.34375 -4.625 C 0.34375 -5.3125 0.453125 -5.960938 0.671875 -6.578125 C 0.898438 -7.191406 1.234375 -7.726562 1.671875 -8.1875 C 2.109375 -8.644531 2.648438 -9.007812 3.296875 -9.28125 C 3.941406 -9.550781 4.691406 -9.6875 5.546875 -9.6875 C 6.390625 -9.6875 7.132812 -9.550781 7.78125 -9.28125 C 8.4375 -9.007812 8.984375 -8.644531 9.421875 -8.1875 C 9.859375 -7.738281 10.1875 -7.210938 10.40625 -6.609375 C 10.632812 -6.015625 10.75 -5.394531 10.75 -4.75 C 10.75 -4.570312 10.738281 -4.390625 10.71875 -4.203125 C 10.695312 -4.015625 10.675781 -3.847656 10.65625 -3.703125 L 3.984375 -3.703125 C 4.023438 -3.191406 4.210938 -2.828125 4.546875 -2.609375 C 4.890625 -2.390625 5.257812 -2.28125 5.65625 -2.28125 C 6.03125 -2.28125 6.378906 -2.363281 6.703125 -2.53125 C 7.035156 -2.695312 7.257812 -2.929688 7.375 -3.234375 L 10.28125 -2.40625 C 9.894531 -1.644531 9.300781 -1.019531 8.5 -0.53125 C 7.695312 -0.0507812 6.710938 0.1875 5.546875 0.1875 Z M 7.0625 -5.765625 C 7 -6.222656 6.828125 -6.582031 6.546875 -6.84375 C 6.273438 -7.113281 5.921875 -7.25 5.484375 -7.25 C 5.054688 -7.25 4.703125 -7.113281 4.421875 -6.84375 C 4.148438 -6.582031 3.984375 -6.222656 3.921875 -5.765625 Z M 7.0625 -5.765625 "/></g></g></g><g fill="#ffd500" fill-opacity="1"><g transform="translate(109.671262, 130.777225)"><g><path d="M 10.421875 0 L 6.984375 0 L 6.984375 -5.34375 C 6.984375 -5.8125 6.878906 -6.148438 6.671875 -6.359375 C 6.460938 -6.578125 6.21875 -6.6875 5.9375 -6.6875 C 5.65625 -6.6875 5.347656 -6.554688 5.015625 -6.296875 C 4.691406 -6.046875 4.453125 -5.722656 4.296875 -5.328125 L 4.296875 0 L 0.859375 0 L 0.859375 -9.5 L 3.953125 -9.5 L 3.953125 -8.09375 C 4.296875 -8.613281 4.769531 -9.007812 5.375 -9.28125 C 5.976562 -9.550781 6.695312 -9.6875 7.53125 -9.6875 C 8.175781 -9.6875 8.6875 -9.566406 9.0625 -9.328125 C 9.445312 -9.097656 9.738281 -8.804688 9.9375 -8.453125 C 10.132812 -8.097656 10.265625 -7.722656 10.328125 -7.328125 C 10.390625 -6.929688 10.421875 -6.570312 10.421875 -6.25 Z M 10.421875 0 "/></g></g></g><g fill="#ffd500" fill-opacity="1"><g transform="translate(120.875672, 130.777225)"><g><path d="M 0.578125 3.78125 C 0.0664062 3.78125 -0.410156 3.691406 -0.859375 3.515625 C -1.316406 3.347656 -1.734375 3.109375 -2.109375 2.796875 L -0.703125 0.46875 C -0.484375 0.707031 -0.203125 0.828125 0.140625 0.828125 C 0.617188 0.828125 0.859375 0.566406 0.859375 0.046875 L 0.859375 -9.5 L 4.296875 -9.5 L 4.296875 -0.21875 C 4.296875 0.375 4.203125 0.910156 4.015625 1.390625 C 3.835938 1.878906 3.582031 2.300781 3.25 2.65625 C 2.925781 3.019531 2.535156 3.296875 2.078125 3.484375 C 1.617188 3.679688 1.117188 3.78125 0.578125 3.78125 Z M 0.859375 -10.296875 L 0.859375 -13.1875 L 4.296875 -13.1875 L 4.296875 -10.296875 Z M 0.859375 -10.296875 "/></g></g></g><g fill="#ffd500" fill-opacity="1"><g transform="translate(126.035831, 130.777225)"><g><path d="M 5.546875 0.1875 C 4.691406 0.1875 3.941406 0.0507812 3.296875 -0.21875 C 2.648438 -0.488281 2.109375 -0.847656 1.671875 -1.296875 C 1.234375 -1.753906 0.898438 -2.28125 0.671875 -2.875 C 0.453125 -3.476562 0.34375 -4.101562 0.34375 -4.75 C 0.34375 -5.394531 0.453125 -6.015625 0.671875 -6.609375 C 0.898438 -7.210938 1.234375 -7.738281 1.671875 -8.1875 C 2.109375 -8.644531 2.648438 -9.007812 3.296875 -9.28125 C 3.941406 -9.550781 4.691406 -9.6875 5.546875 -9.6875 C 6.390625 -9.6875 7.132812 -9.550781 7.78125 -9.28125 C 8.4375 -9.007812 8.984375 -8.644531 9.421875 -8.1875 C 9.859375 -7.738281 10.1875 -7.210938 10.40625 -6.609375 C 10.632812 -6.015625 10.75 -5.394531 10.75 -4.75 C 10.75 -4.101562 10.632812 -3.476562 10.40625 -2.875 C 10.1875 -2.28125 9.859375 -1.753906 9.421875 -1.296875 C 8.984375 -0.847656 8.4375 -0.488281 7.78125 -0.21875 C 7.132812 0.0507812 6.390625 0.1875 5.546875 0.1875 Z M 3.859375 -4.75 C 3.859375 -4.113281 4.015625 -3.613281 4.328125 -3.25 C 4.640625 -2.882812 5.046875 -2.703125 5.546875 -2.703125 C 6.035156 -2.703125 6.4375 -2.882812 6.75 -3.25 C 7.0625 -3.613281 7.21875 -4.113281 7.21875 -4.75 C 7.21875 -5.382812 7.0625 -5.882812 6.75 -6.25 C 6.4375 -6.613281 6.035156 -6.796875 5.546875 -6.796875 C 5.046875 -6.796875 4.640625 -6.613281 4.328125 -6.25 C 4.015625 -5.882812 3.859375 -5.382812 3.859375 -4.75 Z M 3.859375 -4.75 "/></g></g></g><g fill="#ffd500" fill-opacity="1"><g transform="translate(137.113936, 130.777225)"><g><path d="M 0.65625 0.953125 C 1.207031 1.160156 1.675781 1.265625 2.0625 1.265625 C 2.789062 1.265625 3.191406 0.84375 3.265625 0 L -0.1875 -9.5 L 3.34375 -9.5 L 5.140625 -2.90625 L 6.609375 -9.5 L 9.8125 -9.5 L 6.59375 1.140625 C 6.445312 1.609375 6.238281 2.03125 5.96875 2.40625 C 5.707031 2.789062 5.394531 3.117188 5.03125 3.390625 C 4.664062 3.660156 4.257812 3.867188 3.8125 4.015625 C 3.363281 4.160156 2.898438 4.234375 2.421875 4.234375 C 1.804688 4.234375 1.21875 4.117188 0.65625 3.890625 Z M 0.65625 0.953125 "/></g></g></g><g fill="#ffd500" fill-opacity="1"><g transform="translate(146.965149, 130.777225)"><g/></g></g><g fill="#ffd500" fill-opacity="1"><g transform="translate(151.024723, 130.777225)"><g><path d="M 0.859375 0 L 0.859375 -9.5 L 4.296875 -9.5 L 4.296875 0 Z M 0.859375 -10.296875 L 0.859375 -13.1875 L 4.296875 -13.1875 L 4.296875 -10.296875 Z M 0.859375 -10.296875 "/></g></g></g><g fill="#ffd500" fill-opacity="1"><g transform="translate(156.184882, 130.777225)"><g><path d="M 7.53125 -0.53125 C 7.050781 -0.320312 6.535156 -0.144531 5.984375 0 C 5.441406 0.132812 4.90625 0.203125 4.375 0.203125 C 3.988281 0.203125 3.617188 0.148438 3.265625 0.046875 C 2.921875 -0.046875 2.617188 -0.195312 2.359375 -0.40625 C 2.097656 -0.625 1.890625 -0.90625 1.734375 -1.25 C 1.585938 -1.601562 1.515625 -2.039062 1.515625 -2.5625 L 1.515625 -6.921875 L 0.34375 -6.921875 L 0.34375 -9.5 L 1.515625 -9.5 L 1.515625 -12.484375 L 4.953125 -12.484375 L 4.953125 -9.5 L 6.8125 -9.5 L 6.8125 -6.921875 L 4.953125 -6.921875 L 4.953125 -3.78125 C 4.953125 -3.46875 5.015625 -3.242188 5.140625 -3.109375 C 5.273438 -2.984375 5.457031 -2.921875 5.6875 -2.921875 C 5.851562 -2.921875 6.046875 -2.945312 6.265625 -3 C 6.484375 -3.0625 6.703125 -3.140625 6.921875 -3.234375 Z M 7.53125 -0.53125 "/></g></g></g></svg>